<?xml version="1.0" encoding="UTF-8"?><svg id="a" xmlns="http://www.w3.org/2000/svg" viewBox="0 0 200 72.87"><defs><style>.b{fill:#f36c24;}.c{fill:#b35126;}.d{fill:#e1d11f;}</style></defs><g><path class="b" d="M120.2,24.09c-1.3,1.38-2.92,2.42-4.86,3.14,3.06,.87,5.49,2.5,7.3,4.89,1.81,2.4,2.72,4.97,2.72,7.72v.65c0,.23-.03,.45-.08,.65-.15,1.33-.55,2.63-1.19,3.9-.64,1.28-1.54,2.5-2.72,3.67-1.63,1.58-3.38,2.6-5.24,3.06-1.86,.46-3.86,.69-6,.69h-16.37v-2.22h5.51v-9.87c-3.47-1.22-6.26-3.38-8.38-6.46-2.12-3.08-3.17-6.49-3.17-10.21,0-5.2,1.71-9.47,5.12-12.81,3.42-3.34,7.72-4.96,12.93-4.86,.76-1.12,1.61-2.19,2.52-3.21,.92-1.02,1.86-1.96,2.83-2.83l1.53,1.61c-.76,.66-1.41,1.39-1.95,2.18-.54,.79-1.06,1.62-1.57,2.49,3.62,.41,6.69,1.57,9.22,3.48s3.79,4.91,3.79,8.99c0,2.19-.65,3.98-1.95,5.35Zm-16.25-15.68h-.92c-4.28,.51-7.55,2.29-9.79,5.35-2.24,3.06-3.34,6.4-3.29,10.02v.38c.05,2.86,.85,5.57,2.41,8.15,1.55,2.58,3.86,4.5,6.92,5.77v-11.47c0-3.21,.43-6.36,1.3-9.45,.87-3.08,2.09-6,3.67-8.76h-.31Zm9.71,3.44c-1.53-1.48-3.49-2.47-5.89-2.98-1.33,2.8-2.12,5.67-2.37,8.6-.26,2.93-.38,5.93-.38,8.99,3.06,0,5.65-.56,7.76-1.68,2.12-1.12,3.17-3.39,3.17-6.81,0-2.6-.76-4.64-2.29-6.12Zm5.2,31.7c.46-1.3,.69-2.61,.69-3.94,0-2.75-.89-5.25-2.68-7.5-1.79-2.24-4.26-3.37-7.42-3.37h-4.44v10.4c1.48,0,2.94-.23,4.4-.69,1.45-.46,2.79-1.12,4.02-1.99l1.3,1.76c-1.43,.97-2.97,1.73-4.63,2.29-1.66,.56-3.35,.84-5.09,.84v8.87h1.76c.31,.05,.6,.08,.88,.08h.88c1.53,0,2.98-.18,4.36-.54,1.38-.36,2.65-1.22,3.82-2.6,.97-1.12,1.68-2.33,2.14-3.63Z"/><path class="b" d="M131.86,28.22c-.66,.66-1.45,.99-2.37,.99-.97,0-1.77-.33-2.41-.99-.64-.66-.96-1.45-.96-2.37,0-.97,.32-1.78,.96-2.45,.64-.66,1.44-.99,2.41-.99,.92,0,1.71,.33,2.37,.99,.66,.66,.99,1.48,.99,2.45,0,.92-.33,1.71-.99,2.37Zm2.64,22.92c-.89,.88-1.95,1.32-3.17,1.32s-2.27-.44-3.14-1.32c-.87-.88-1.3-1.97-1.3-3.27v-12.16h5.2v13.84c0,.1,.04,.19,.11,.27,.08,.08,.17,.11,.27,.11,.05,0,.1-.03,.15-.08,.31-.27,.55-.57,.73-.91,.18-.34,.27-.7,.27-1.07h2.22c0,1.3-.45,2.39-1.34,3.27Z"/><path class="b" d="M151.82,50.28c-1.89,1.46-3.95,2.19-6.2,2.19-2.19-.05-4.21-.79-6.04-2.22-1.84-1.43-2.75-3.6-2.75-6.51V13.32c0-1.63,.56-2.94,1.68-3.91,1.12-.97,2.34-1.46,3.67-1.46,.66,0,1.31,.11,1.95,.34,.64,.23,1.21,.63,1.72,1.19l-1.53,1.61c-.31-.31-.63-.54-.96-.69-.33-.15-.7-.23-1.11-.23h-.23v25.85c.15-.05,.28-.1,.38-.15,.1-.05,.23-.1,.38-.15,.25-.05,.51-.11,.76-.19,.25-.08,.51-.11,.76-.11,.05-.05,.1-.08,.15-.08,.25-.05,.47-.08,.65-.08h.57c2.4,0,4.49,.83,6.27,2.5,1.78,1.66,2.68,3.7,2.68,6.11,0,2.82-.94,4.96-2.83,6.42Zm-3.71-3.79c.23-.87,.34-1.75,.34-2.62s-.11-1.75-.34-2.62c-.23-.87-.57-1.64-1.03-2.31-.26-.41-.55-.74-.88-1-.33-.26-.73-.38-1.19-.38h-.15c-.51,.05-1.01,.17-1.49,.35-.49,.18-.93,.4-1.34,.65v8.54c0,.67,.2,1.28,.61,1.85,.41,.56,.94,.98,1.61,1.23h.31c.05,.05,.1,.08,.15,.08h.31c.46,0,.85-.14,1.19-.42,.33-.28,.62-.6,.88-.96,.46-.72,.8-1.51,1.03-2.39Z"/><path class="b" d="M161.15,28.22c-.66,.66-1.45,.99-2.37,.99-.97,0-1.77-.33-2.41-.99-.64-.66-.96-1.45-.96-2.37,0-.97,.32-1.78,.96-2.45,.64-.66,1.44-.99,2.41-.99,.92,0,1.71,.33,2.37,.99,.66,.66,.99,1.48,.99,2.45,0,.92-.33,1.71-.99,2.37Zm2.64,22.92c-.89,.88-1.95,1.32-3.17,1.32s-2.27-.44-3.14-1.32c-.87-.88-1.3-1.97-1.3-3.27v-12.16h5.2v13.84c0,.1,.04,.19,.11,.27s.17,.11,.27,.11c.05,0,.1-.03,.15-.08,.31-.27,.55-.57,.73-.91,.18-.34,.27-.7,.27-1.07h2.22c0,1.3-.45,2.39-1.34,3.27Z"/></g><g><path class="c" d="M101.91,65.7c-.17,.07-.35,.11-.52,.11-.15-.03-.28-.06-.41-.09-.13-.03-.27-.09-.41-.17-.26-.15-.49-.36-.68-.65-.19-.29-.31-.6-.37-.92v-.35s.01-.07,.04-.13c0-.03,0-.07,.02-.11,.01-.04,.02-.08,.02-.11h-.22c-.09,0-.18,0-.28,.02-.1,.01-.21,.04-.33,.07-.12,.03-.23,.07-.33,.11-.1,.04-.2,.09-.28,.15,.06,.15,.1,.3,.13,.46,.03,.16,.04,.33,.04,.5v7.25h-2.97v-8.25s-.06-.01-.09-.04c-.03-.03-.04-.06-.04-.09h-.13s-.01,.04-.04,.04c-.17,.12-.31,.27-.41,.46-.1,.19-.15,.4-.15,.63h-1.27c0-.79,.27-1.41,.81-1.88,.54-.47,1.13-.7,1.77-.7,.29,0,.57,.04,.85,.13,.28,.09,.53,.25,.76,.48,.35-.2,.7-.36,1.05-.46,.35-.1,.71-.15,1.09-.15s.74,.05,1.09,.15c.35,.1,.68,.26,1,.46,.26,.15,.49,.36,.68,.65,.19,.29,.31,.6,.37,.92v.22c0,.17-.02,.34-.07,.5-.04,.16-.14,.31-.28,.46-.12,.15-.26,.26-.44,.33Z"/><path class="c" d="M110.73,71.33c-.73,.34-1.47,.5-2.23,.5h-.26c-.09,0-.17-.01-.26-.04-.52-.06-1.04-.2-1.55-.44-.51-.23-.98-.55-1.42-.96-.52-.49-.91-1.04-1.16-1.64-.25-.6-.37-1.2-.37-1.81,.03-1.28,.52-2.42,1.46-3.41,.95-.99,2.18-1.5,3.69-1.53h.13c.76,.03,1.45,.22,2.07,.57,.63,.35,1,.93,1.11,1.75v.35c0,.87-.33,1.58-.98,2.12-.65,.54-1.39,.95-2.2,1.24-.23,.09-.47,.17-.7,.24-.23,.07-.45,.14-.65,.2l-.13,.04c.03,.12,.07,.23,.11,.35,.04,.12,.08,.23,.11,.35,.15,.35,.33,.66,.55,.94,.22,.28,.52,.4,.9,.37h.13c.49-.06,.97-.22,1.42-.48,.45-.26,.84-.58,1.16-.96l.96,.79c-.52,.64-1.15,1.13-1.88,1.46Zm-.48-7.66c-.26-.17-.54-.28-.83-.31-.06-.03-.12-.04-.2-.04h-.2c-.47,0-.84,.23-1.14,.7-.29,.47-.5,.98-.61,1.53-.09,.29-.15,.58-.17,.85-.03,.28-.04,.52-.04,.72v.13c.2-.06,.44-.12,.7-.2,.26-.07,.52-.17,.79-.28,.55-.2,1.05-.48,1.48-.83s.65-.79,.65-1.31v-.17c-.03-.35-.17-.61-.44-.79Z"/><path class="c" d="M119.92,70.79c-.54,.44-1.13,.74-1.77,.92-.2,.03-.39,.06-.57,.09-.17,.03-.35,.04-.52,.04v-.04h-.13c-.2,0-.41-.01-.61-.04-.2-.03-.41-.07-.61-.13-.58-.15-1.12-.39-1.62-.72-.5-.33-.81-.78-.96-1.33,0-.06,0-.1-.02-.13-.01-.03-.02-.07-.02-.13v-.22c0-.38,.11-.71,.33-.98,.22-.28,.53-.43,.94-.46h.13c.49,0,.93,.21,1.31,.63,.38,.42,.58,.88,.61,1.38v.31c0,.06-.01,.12-.04,.17,0,.06-.02,.12-.04,.17-.03,.06-.06,.12-.09,.17,.12,.03,.24,.05,.37,.07,.13,.01,.25,0,.37-.02h.26c.15-.03,.28-.06,.41-.09,.13-.03,.24-.07,.33-.13,.06-.03,.1-.07,.13-.11,.03-.04,.06-.08,.09-.11,0-.03,0-.07,.02-.11,.01-.04,.02-.08,.02-.11,0-.12-.1-.28-.31-.48-.2-.2-.44-.42-.7-.65-.06-.03-.11-.07-.15-.11-.04-.04-.09-.08-.15-.11-.23-.2-.46-.39-.68-.55-.22-.16-.39-.28-.5-.37-.12-.09-.23-.17-.33-.26-.1-.09-.21-.16-.33-.22-.47-.38-.87-.76-1.22-1.16-.35-.39-.52-.84-.52-1.33,0-.67,.26-1.21,.79-1.64,.52-.42,1.11-.71,1.75-.85,.17-.06,.34-.09,.5-.11,.16-.01,.31-.02,.46-.02s.29,0,.44,.02c.15,.01,.29,.02,.44,.02,.55,.09,1.08,.28,1.57,.57,.49,.29,.81,.73,.96,1.31,0,.03,0,.07,.02,.11,.01,.04,.02,.08,.02,.11v.22c0,.38-.1,.71-.31,.98-.2,.28-.51,.43-.92,.46h-.04c-.5,0-.92-.2-1.29-.61-.36-.41-.56-.84-.59-1.31v-.24s.01-.08,.04-.11c0-.03,0-.07,.02-.11,.01-.04,.02-.08,.02-.11h-.09s-.06-.01-.09-.04h-.48c-.2,.03-.39,.09-.57,.2-.17,.1-.26,.24-.26,.41,0,.09,.1,.23,.31,.41,.2,.19,.44,.39,.7,.59,.03,.06,.07,.1,.11,.13,.04,.03,.09,.06,.15,.09,.2,.17,.41,.34,.61,.48,.2,.15,.36,.26,.48,.35,.67,.47,1.27,.94,1.81,1.42,.54,.48,.81,1.06,.81,1.72s-.27,1.27-.81,1.7Z"/><path class="c" d="M126.38,71.08c-.51,.5-1.11,.75-1.81,.75s-1.3-.25-1.81-.75c-.51-.5-.76-1.12-.76-1.86v-5.94h-1.22v-1.27h1.22v-7.33h3.01v7.33h2.01v1.27h-2.01v6.9s.01,.07,.04,.11c.03,.04,.07,.07,.13,.07,.03,.03,.05,.04,.07,.04s.04-.01,.07-.04c.17-.12,.31-.29,.41-.5,.1-.21,.15-.42,.15-.64h1.27c0,.74-.26,1.36-.76,1.86Z"/><path class="c" d="M138.86,71.14c-.54,.47-1.14,.7-1.81,.7-.38,0-.74-.09-1.09-.26s-.65-.45-.92-.83c-.41,.38-.84,.66-1.31,.85-.47,.19-.95,.27-1.44,.24-.55,0-1.11-.12-1.66-.37-.55-.25-1.03-.6-1.44-1.07-.41-.5-.72-1.05-.94-1.65s-.31-1.22-.28-1.87c0-.61,.1-1.21,.31-1.8,.2-.59,.51-1.11,.92-1.58,.41-.49,.89-.87,1.44-1.11,.55-.25,1.11-.37,1.66-.37,.41,0,.8,.07,1.18,.2,.38,.13,.74,.31,1.09,.55v-.48h2.97v7.9c0,.06,.02,.11,.07,.15,.04,.04,.09,.07,.15,.07,.03,0,.05,0,.07-.02s.04-.02,.07-.02c.17-.12,.31-.28,.41-.48,.1-.2,.15-.41,.15-.61h1.22c0,.79-.27,1.41-.81,1.88Zm-4.3-6.67c-.15-.2-.32-.39-.52-.55-.2-.16-.42-.3-.65-.42-.06-.03-.12-.05-.17-.07-.06-.01-.12-.02-.17-.02-.26,.03-.5,.13-.7,.31-.2,.18-.38,.38-.52,.61-.2,.38-.36,.79-.46,1.23-.1,.44-.15,.91-.15,1.41,0,.47,.05,.92,.15,1.36,.1,.44,.25,.83,.46,1.19,.2,.29,.41,.51,.61,.66,.2,.15,.41,.22,.61,.22,.26,0,.52-.09,.79-.28,.26-.19,.51-.43,.74-.73v-4.92Z"/><path class="c" d="M150.56,71.14c-.54,.47-1.14,.7-1.81,.7-.44,0-.86-.12-1.27-.35-.41-.23-.73-.6-.96-1.09-.44,.41-.95,.75-1.53,1.03-.58,.28-1.18,.4-1.79,.37-.38,0-.75-.06-1.11-.17-.36-.12-.71-.31-1.03-.57-.29-.23-.52-.52-.68-.85-.16-.33-.24-.69-.24-1.07v-7.12h3.06v7.77c0,.17,.07,.31,.2,.41,.13,.1,.28,.17,.46,.2h.26c.06-.03,.1-.04,.13-.04,.41-.15,.79-.36,1.14-.65,.35-.29,.63-.63,.83-1v-6.68h3.06v8.29c.06,.03,.09,.05,.11,.07,.01,.01,.04,0,.07-.02h.04s.01-.04,.04-.04c.2-.09,.35-.23,.44-.44,.09-.2,.13-.41,.13-.61h1.27c0,.79-.27,1.41-.81,1.88Z"/><path class="c" d="M158.92,65.7c-.17,.07-.35,.11-.52,.11-.15-.03-.28-.06-.41-.09-.13-.03-.27-.09-.41-.17-.26-.15-.49-.36-.68-.65-.19-.29-.31-.6-.37-.92v-.35s.01-.07,.04-.13c0-.03,0-.07,.02-.11,.01-.04,.02-.08,.02-.11h-.22c-.09,0-.18,0-.28,.02-.1,.01-.21,.04-.33,.07-.12,.03-.23,.07-.33,.11-.1,.04-.2,.09-.28,.15,.06,.15,.1,.3,.13,.46,.03,.16,.04,.33,.04,.5v7.25h-2.97v-8.25s-.06-.01-.09-.04c-.03-.03-.04-.06-.04-.09h-.13s-.01,.04-.04,.04c-.17,.12-.31,.27-.41,.46-.1,.19-.15,.4-.15,.63h-1.27c0-.79,.27-1.41,.81-1.88,.54-.47,1.13-.7,1.77-.7,.29,0,.57,.04,.85,.13,.28,.09,.53,.25,.76,.48,.35-.2,.7-.36,1.05-.46,.35-.1,.71-.15,1.09-.15s.74,.05,1.09,.15c.35,.1,.68,.26,1,.46,.26,.15,.49,.36,.68,.65,.19,.29,.31,.6,.37,.92v.22c0,.17-.02,.34-.07,.5-.04,.16-.14,.31-.28,.46-.12,.15-.26,.26-.44,.33Z"/><path class="c" d="M171.47,71.14c-.54,.47-1.14,.7-1.81,.7-.38,0-.74-.09-1.09-.26-.35-.17-.65-.45-.92-.83-.41,.38-.84,.66-1.31,.85-.47,.19-.95,.27-1.44,.24-.55,0-1.11-.12-1.66-.37-.55-.25-1.03-.6-1.44-1.07-.41-.5-.72-1.05-.94-1.65s-.31-1.22-.28-1.87c0-.61,.1-1.21,.31-1.8,.2-.59,.51-1.11,.92-1.58,.41-.49,.89-.87,1.44-1.11,.55-.25,1.11-.37,1.66-.37,.41,0,.8,.07,1.18,.2,.38,.13,.74,.31,1.09,.55v-.48h2.97v7.9c0,.06,.02,.11,.07,.15s.09,.07,.15,.07c.03,0,.05,0,.07-.02,.01-.01,.04-.02,.07-.02,.17-.12,.31-.28,.41-.48,.1-.2,.15-.41,.15-.61h1.22c0,.79-.27,1.41-.81,1.88Zm-4.3-6.67c-.15-.2-.32-.39-.52-.55-.2-.16-.42-.3-.65-.42-.06-.03-.12-.05-.17-.07-.06-.01-.12-.02-.17-.02-.26,.03-.5,.13-.7,.31-.2,.18-.38,.38-.52,.61-.2,.38-.36,.79-.46,1.23-.1,.44-.15,.91-.15,1.41,0,.47,.05,.92,.15,1.36,.1,.44,.25,.83,.46,1.19,.2,.29,.41,.51,.61,.66,.2,.15,.41,.22,.61,.22,.26,0,.52-.09,.79-.28,.26-.19,.51-.43,.74-.73v-4.92Z"/><path class="c" d="M183.74,71.05c-.51,.5-1.11,.74-1.81,.74s-1.3-.25-1.81-.74c-.51-.49-.76-1.11-.76-1.83v-5.15c0-.23-.08-.4-.24-.5-.16-.1-.34-.15-.55-.15h-.11s-.1,.01-.15,.04c-.03-.03-.1,0-.22,.07-.12,.07-.23,.15-.35,.24-.03,0-.05,0-.07,.02l-.07,.07c-.12,.06-.22,.12-.31,.2-.09,.07-.15,.12-.17,.15-.23,.2-.44,.44-.61,.7s-.29,.54-.35,.83v6.11h-3.01v-8.25s-.06-.01-.09-.04c-.03-.03-.04-.06-.04-.09h-.13s-.02,.04-.04,.04c-.17,.12-.31,.27-.41,.46-.1,.19-.15,.4-.15,.63h-1.27c0-.79,.26-1.4,.79-1.86,.52-.45,1.11-.69,1.75-.72h.13c.47,0,.91,.12,1.33,.37,.42,.25,.73,.65,.94,1.2,.26-.29,.55-.55,.87-.76,.32-.22,.65-.39,1-.5,.23-.09,.48-.16,.74-.22,.26-.06,.52-.09,.79-.09,.38,0,.75,.07,1.11,.2,.36,.13,.69,.31,.98,.55,.29,.23,.52,.52,.7,.85,.17,.34,.26,.71,.26,1.11v5.46c0,.06,0,.1,.02,.13,.01,.03,.07,.04,.15,.04,.12,0,.23-.07,.33-.2,.1-.13,.17-.27,.2-.41,.06-.12,.09-.22,.11-.31,.01-.09,.02-.16,.02-.22h1.27c0,.73-.26,1.34-.76,1.83Z"/><path class="c" d="M189.37,71.08c-.51,.5-1.11,.75-1.81,.75s-1.3-.25-1.81-.75c-.51-.5-.76-1.12-.76-1.86v-5.94h-1.22v-1.27h1.22v-7.33h3.01v7.33h2.01v1.27h-2.01v6.9s.01,.07,.04,.11c.03,.04,.07,.07,.13,.07,.03,.03,.05,.04,.07,.04s.04-.01,.07-.04c.17-.12,.31-.29,.41-.5,.1-.21,.15-.42,.15-.64h1.27c0,.74-.26,1.36-.76,1.86Z"/><path class="c" d="M198.12,71.33c-.73,.34-1.47,.5-2.23,.5h-.26c-.09,0-.17-.01-.26-.04-.52-.06-1.04-.2-1.55-.44-.51-.23-.98-.55-1.42-.96-.52-.49-.91-1.04-1.16-1.64-.25-.6-.37-1.2-.37-1.81,.03-1.28,.52-2.42,1.46-3.41,.95-.99,2.18-1.5,3.69-1.53h.13c.76,.03,1.45,.22,2.07,.57,.63,.35,1,.93,1.11,1.75v.35c0,.87-.33,1.58-.98,2.12-.65,.54-1.39,.95-2.2,1.24-.23,.09-.47,.17-.7,.24-.23,.07-.45,.14-.65,.2l-.13,.04c.03,.12,.07,.23,.11,.35,.04,.12,.08,.23,.11,.35,.15,.35,.33,.66,.55,.94,.22,.28,.52,.4,.9,.37h.13c.49-.06,.97-.22,1.42-.48,.45-.26,.84-.58,1.16-.96l.96,.79c-.52,.64-1.15,1.13-1.88,1.46Zm-.48-7.66c-.26-.17-.54-.28-.83-.31-.06-.03-.12-.04-.2-.04h-.2c-.47,0-.84,.23-1.14,.7-.29,.47-.5,.98-.61,1.53-.09,.29-.15,.58-.17,.85-.03,.28-.04,.52-.04,.72v.13c.2-.06,.44-.12,.7-.2,.26-.07,.52-.17,.79-.28,.55-.2,1.05-.48,1.48-.83s.65-.79,.65-1.31v-.17c-.03-.35-.17-.61-.44-.79Z"/></g><path class="b" d="M68.13,39l.12,.04c.08,.03,.2,.06,.35,.11,.31,.08,.78,.18,1.39,.18,.6,0,1.35-.15,2.09-.57,.73-.42,1.46-1.1,1.95-2.04,.48-.93,.73-2.11,.44-3.26-.14-.57-.4-1.11-.8-1.6-.05-.06-.1-.12-.15-.18-.03-.03,.02,.02,0,0l-.02-.03-.05-.05-.1-.11-.2-.21-.17-.15c-.22-.2-.51-.41-.79-.58-.57-.34-1.2-.57-1.88-.64-.67-.08-1.38,0-2.07,.23-1.38,.44-2.68,1.49-3.42,2.86-.18,.34-.35,.7-.46,1.07-.04,.09-.05,.19-.08,.28l-.04,.14c-.02,.06,.01-.04,0-.01v.05l-.03,.1-.08,.38-.04,.19c-.01,.06-.01,.11-.02,.16l-.04,.31c-.02,.1-.03,.2-.04,.32-.01,.23-.05,.45-.05,.69-.02,.46-.01,.94,.01,1.42,.09,1.93,.56,4,1.1,6.2,.54,2.2,1.17,4.55,1.59,7.09,.41,2.53,.59,5.28,.25,8.07-.04,.35-.1,.7-.15,1.05-.06,.35-.13,.69-.2,1.04l-.03,.13s0,0-.03,.12v.06l-.07,.23-.03,.12-.04,.16-.09,.32c-.12,.39-.25,.77-.41,1.15-.62,1.52-1.61,2.94-2.84,4.09-1.23,1.15-2.68,1.99-4.19,2.57-.75,.29-1.52,.52-2.3,.68l-1.01,.2-1.02,.19c-2.72,.49-5.45,.8-8.19,1-2.74,.2-5.49,.3-8.23,.3-5.48-.02-11-.34-16.42-1.32-.34-.06-.68-.12-1.01-.19l-1.03-.21-.25-.06-.3-.07c-.2-.05-.38-.1-.57-.15-.38-.11-.75-.23-1.13-.37-1.5-.55-2.98-1.38-4.24-2.55-1.26-1.16-2.22-2.64-2.81-4.15-.15-.38-.28-.76-.39-1.14-.05-.19-.11-.38-.15-.57l-.07-.29-.04-.19-.02-.12-.09-.47-.04-.23c-.01-.08-.03-.15-.04-.25-.05-.37-.1-.74-.15-1.09-.31-2.79-.13-5.52,.29-8.05,.42-2.53,1.04-4.88,1.57-7.08,.54-2.2,.99-4.27,1.08-6.21,.05-.97,.01-1.9-.13-2.79-.03-.23-.09-.44-.12-.66l-.02-.08v-.04s.02,.08,0,.01l-.05-.19-.05-.19-.03-.09-.02-.06-.08-.24-.11-.27c-.08-.18-.16-.36-.26-.53-.75-1.38-2.05-2.43-3.44-2.87-.69-.23-1.4-.31-2.08-.23-.68,.07-1.31,.31-1.89,.64-.57,.35-1.07,.81-1.5,1.32-.18,.22-.36,.5-.48,.76-.13,.27-.24,.55-.31,.83-.29,1.15-.04,2.33,.45,3.26,.49,.94,1.22,1.63,1.95,2.04,.74,.42,1.49,.56,2.09,.57,.61,0,1.08-.1,1.39-.18,.16-.05,.27-.08,.35-.11l.12-.04-.11,.06c-.07,.04-.18,.1-.33,.17-.3,.14-.75,.34-1.4,.43-.64,.09-1.49,.08-2.41-.26-.92-.33-1.9-1.01-2.66-2.06-.38-.53-.71-1.14-.92-1.85-.21-.7-.31-1.5-.22-2.32,.09-.83,.36-1.67,.85-2.46,.46-.73,1.05-1.44,1.81-2.04,.76-.59,1.7-1.07,2.74-1.3,1.03-.24,2.15-.24,3.23-.02,2.17,.46,4.23,1.79,5.63,3.82,.09,.12,.17,.26,.25,.39,.08,.13,.16,.26,.23,.4l.22,.42,.21,.48,.05,.12,.04,.09,.07,.18,.07,.18,.08,.27c.08,.28,.18,.57,.24,.86,.29,1.16,.43,2.36,.47,3.56,.06,2.41-.29,4.78-.69,7.08-.41,2.31-.87,4.58-1.11,6.84-.25,2.26-.29,4.51,.06,6.72l.14,.77c0,.06,.02,.13,.04,.21l.05,.23,.1,.46,.03,.12s.02,.1,0,0v.04l.06,.18c.03,.12,.07,.23,.1,.35,.07,.23,.16,.45,.25,.66,.37,.85,.87,1.56,1.54,2.13,.66,.58,1.5,1.03,2.46,1.36,.24,.08,.49,.16,.74,.23l.38,.09,.18,.04,.23,.05,.9,.17c.31,.06,.62,.1,.93,.16,5,.79,10.23,1.11,15.47,1.09,2.62,0,5.24-.07,7.83-.25,1.29-.09,2.58-.2,3.86-.35,1.27-.14,2.55-.3,3.78-.5,.31-.05,.6-.09,.92-.15l.93-.17c.51-.1,1.01-.24,1.48-.41,.94-.34,1.78-.83,2.47-1.42,.68-.6,1.22-1.32,1.6-2.15,.1-.2,.18-.43,.25-.64l.05-.14,.02-.07,.03-.11,.06-.23,.02-.06c-.02,.08,0,0,0,0l.02-.1c.06-.27,.13-.54,.18-.81l.15-.82c.37-2.19,.34-4.43,.09-6.69-.24-2.26-.7-4.52-1.12-6.83-.41-2.3-.77-4.67-.72-7.08,.01-.6,.06-1.2,.13-1.8,.08-.6,.18-1.18,.34-1.81,.02-.07,.04-.16,.05-.23l.06-.19,.11-.37,.07-.25,.08-.23c.06-.15,.1-.3,.17-.45,.24-.59,.55-1.14,.89-1.65,1.4-2.04,3.47-3.37,5.64-3.83,1.09-.23,2.21-.22,3.24,.02,1.04,.23,1.98,.71,2.75,1.3,.38,.31,.71,.62,1.03,.99l.24,.28,.17,.24,.2,.27c.06,.1,.13,.19,.18,.29,.47,.77,.76,1.63,.85,2.46,.09,.83,0,1.62-.22,2.33-.21,.71-.54,1.33-.92,1.85-.77,1.05-1.75,1.73-2.67,2.06-.93,.34-1.77,.35-2.42,.26-.65-.1-1.11-.3-1.4-.44-.15-.07-.26-.13-.33-.17l-.11-.06Z"/><path class="b" d="M61.7,23.66s0-.09,0-.07v-.06s-.03-.08-.04-.12c-.1-.29-.26-.43-.41-.57-.15-.13-.31-.22-.46-.3-.31-.16-.61-.27-.91-.36-.6-.18-1.2-.3-1.78-.4-1.17-.19-2.3-.3-3.39-.37-2.17-.15-4.16-.17-5.92-.16-1.76,.01-3.3,.06-4.56,.11-.92,.04-1.7,.08-2.31,.12,.02-.15,.02-.31,.02-.47,0-.29-.08-.58-.17-.87-.2-.57-.58-1.1-1.04-1.51-.47-.42-1.02-.73-1.62-.93-.3-.1-.59-.17-.96-.22l-.13-.02h-.09l-.18-.02h-.5c-.63,.02-1.27,.16-1.85,.41-.59,.25-1.13,.64-1.56,1.13-.32,.37-.56,.79-.71,1.25-.68,.08-1.66,.19-2.9,.35-1.27,.17-2.81,.38-4.57,.68-1.76,.3-3.75,.66-5.91,1.19-1.08,.27-2.21,.57-3.38,.97-.59,.2-1.19,.43-1.82,.73-.32,.16-.64,.32-.99,.57-.17,.12-.36,.26-.56,.46-.19,.2-.42,.45-.6,.9-.08,.23-.14,.51-.12,.8,0,.02,.03,.28,.02,.18v.06l.03,.08c.04,.18,.12,.39,.17,.47,.23,.44,.5,.67,.73,.84,.46,.33,.84,.48,1.21,.61,.73,.26,1.41,.4,2.1,.52,1.37,.24,2.73,.36,4.11,.45,2.76,.17,5.58,.17,8.45,.08,2.86-.08,5.76-.26,8.66-.51,2.89-.25,5.78-.57,8.61-.98,2.83-.41,5.6-.89,8.26-1.52,1.33-.32,2.63-.66,3.89-1.11,.63-.22,1.25-.47,1.85-.79,.3-.17,.59-.34,.88-.6,.14-.13,.28-.28,.39-.5,.06-.1,.1-.24,.11-.37,0-.03,0-.07,0-.11v-.05Zm-46.77,2.62h-.02s0-.02,.02,0Zm45.89-2.56s0,.04-.03,.07c-.03,.06-.11,.15-.2,.22-.19,.16-.44,.31-.71,.44-.53,.26-1.13,.47-1.73,.66-1.22,.37-2.5,.66-3.82,.92-2.63,.51-5.39,.87-8.2,1.16-2.81,.29-5.68,.49-8.54,.62-2.87,.13-5.74,.19-8.55,.16-2.82-.03-5.59-.15-8.22-.41-1.31-.14-2.6-.31-3.79-.56-.35-.08-.69-.16-1.01-.26,.4-.16,.83-.3,1.26-.43,1.05-.31,2.11-.55,3.14-.76,2.06-.41,4-.69,5.72-.91,1.72-.22,3.22-.39,4.47-.48,2.69-.2,5.01-.27,5.01-.27h0s-.04-.06-.11-.15c-.08-.1-.17-.24-.28-.42-.11-.18-.22-.4-.29-.64-.07-.24-.14-.5-.09-.74,.1-.51,.34-.88,.76-1.11,.45-.26,1.07-.48,1.73-.49h.54c.11,.03,.28,.04,.44,.08,.31,.06,.61,.16,.86,.29,.25,.13,.48,.27,.64,.44,.17,.17,.29,.35,.37,.59,.08,.21,.09,.47,.06,.71-.03,.24-.1,.47-.18,.66-.08,.19-.16,.35-.22,.45l-.1,.16s.07,0,.19-.03c.12-.03,.31-.07,.53-.17,.22-.1,.49-.26,.75-.53,.26-.27,.51-.65,.63-1.16,.02-.08,.04-.17,.05-.26,.62-.01,1.4-.02,2.33-.02,1.26,0,2.79,.01,4.55,.07,1.75,.06,3.73,.17,5.88,.4,1.07,.12,2.18,.27,3.31,.5,.56,.12,1.13,.26,1.67,.44,.27,.09,.53,.2,.77,.34,.12,.07,.22,.14,.3,.21,.08,.07,.14,.16,.13,.17,0,0,0-.01,0,0v.06s0,0,0,0Z"/><path class="d" d="M79.06,9.37c-.09-.44-.24-.88-.44-1.29-.39-.82-.98-1.56-1.69-2.13-.07-.07-.17-.14-.27-.21-.1-.07-.19-.14-.29-.2-.19-.13-.39-.25-.6-.35-.41-.22-.84-.4-1.29-.54-.89-.27-1.85-.39-2.81-.31-.96,.07-1.92,.36-2.81,.85-.27,.15-.53,.33-.77,.53-.29-.5-.64-.96-1.02-1.38-.42-.46-.89-.87-1.4-1.22-.51-.36-1.06-.66-1.65-.89-.59-.23-1.22-.4-1.87-.46-.65-.07-1.33-.04-1.99,.11-.33,.08-.66,.17-.97,.3l-.12,.05-.07,.03h-.02l-.04,.03-.18,.09-.18,.09-.22,.12c-.3,.16-.56,.34-.82,.52-.13,.1-.25,.2-.38,.3l-.36,.33c-.46,.46-.86,1-1.15,1.59-.29,.59-.49,1.22-.57,1.84-.18,1.25,.01,2.46,.37,3.54,.18,.55,.39,1.07,.65,1.56,.25,.5,.53,.97,.84,1.43,.61,.91,1.32,1.73,2.1,2.46l.21-.16c-.24-.47-.49-.94-.7-1.41-.22-.47-.43-.94-.6-1.42-.18-.48-.35-.95-.48-1.44-.13-.48-.24-.96-.31-1.44-.13-.95-.11-1.89,.11-2.7,.23-.82,.67-1.48,1.28-1.99l.24-.18,.25-.17c.18-.11,.36-.22,.53-.29l.13-.06,.18-.08,.18-.08,.05-.02h.03s-.07,.02-.03,0h0l.07-.03c.17-.07,.36-.11,.54-.14,.37-.07,.75-.07,1.14-.03,.39,.04,.79,.14,1.18,.28,.39,.14,.78,.33,1.14,.56,.36,.23,.71,.49,1.02,.79,.63,.59,1.12,1.32,1.38,2.09l.95,2.86,1.25-2.62c.27-.57,.71-1.07,1.25-1.48,.54-.41,1.21-.71,1.92-.9,.71-.18,1.47-.24,2.23-.14,.38,.05,.75,.13,1.11,.26,.18,.06,.36,.14,.53,.22,.09,.04,.17,.08,.25,.13,.08,.04,.16,.09,.25,.15,.33,.21,.63,.46,.89,.75,.27,.28,.49,.6,.67,.95,.36,.69,.53,1.48,.49,2.27-.03,.79-.26,1.56-.61,2.27-.35,.71-.83,1.36-1.37,1.94-.54,.59-1.14,1.1-1.77,1.58-.63,.48-1.28,.93-1.96,1.34-.34,.22-.67,.4-1.01,.61l-1.09,.61c-.74,.4-1.48,.82-2.21,1.24-.73,.43-1.47,.86-2.19,1.32-.72,.47-1.45,.95-2.14,1.52-.69,.56-1.35,1.25-1.82,2.05-.47,.8-.71,1.67-.86,2.51l.24,.09c.44-.74,.89-1.44,1.44-1.99,.54-.56,1.19-.99,1.88-1.38,.7-.39,1.44-.75,2.19-1.11l2.27-1.09c.76-.37,1.52-.74,2.27-1.13l.58-.3,.55-.31c.39-.23,.79-.48,1.15-.73,.73-.52,1.42-1.11,2.04-1.76,.62-.66,1.17-1.38,1.65-2.16,.47-.78,.86-1.6,1.13-2.46,.27-.86,.43-1.76,.43-2.66,0-.45-.04-.9-.15-1.35Z"/><path class="d" d="M63.58,27.37l.05-.14c.03-.09,.08-.22,.17-.39,.09-.16,.21-.35,.36-.56,.08-.1,.16-.2,.25-.32l.3-.33c.22-.22,.47-.45,.74-.68,.28-.23,.58-.45,.9-.66,.64-.43,1.38-.81,2.14-1.12l1.08-.43c.35-.14,.69-.28,1.02-.43,.66-.28,1.27-.57,1.8-.83,.26-.13,.5-.26,.71-.37,.21-.12,.39-.22,.54-.31,.14-.1,.27-.16,.34-.22l.12-.08-.06,.13c-.04,.09-.11,.21-.21,.37-.1,.15-.23,.33-.39,.53-.16,.19-.36,.4-.58,.62-.45,.43-1.02,.88-1.68,1.28-.33,.21-.68,.39-1.04,.58-.18,.09-.38,.18-.56,.26l-.55,.23c-.35,.14-.7,.3-1.05,.45-.34,.16-.68,.31-1,.47-.32,.15-.64,.31-.93,.46-.3,.15-.57,.29-.83,.43-.26,.14-.49,.27-.69,.39-.2,.12-.38,.23-.52,.33-.13,.1-.25,.18-.32,.24l-.12,.09Z"/><path class="d" d="M72.2,7.51s.11-.06,.33-.11c.21-.06,.52-.11,.89-.1,.19,0,.39,.02,.6,.07,.21,.03,.43,.1,.66,.19,.12,.03,.22,.1,.34,.15,.11,.06,.23,.11,.33,.19,.21,.15,.43,.31,.61,.51,.09,.1,.19,.19,.27,.3,.08,.11,.15,.22,.22,.34l.1,.17,.07,.18c.05,.12,.1,.24,.14,.35,.09,.23,.1,.47,.13,.69,.04,.22,0,.43,0,.62-.02,.19-.03,.36-.09,.5-.04,.15-.09,.27-.13,.37-.08,.2-.14,.31-.14,.31,0,0-.06-.12-.15-.31-.04-.1-.09-.21-.14-.34-.04-.13-.12-.27-.18-.41l-.1-.23-.05-.12-.07-.11c-.05-.08-.08-.15-.13-.23-.04-.08-.07-.16-.13-.23-.11-.14-.18-.31-.31-.44-.06-.07-.12-.14-.17-.21-.05-.07-.13-.13-.19-.2-.11-.14-.27-.25-.4-.38-.14-.12-.29-.23-.44-.34-.15-.1-.3-.22-.45-.31-.15-.1-.3-.19-.44-.27l-1-.59Z"/><path class="c" d="M18.92,48.41v.87c0,.55,0,1.33,.03,2.25,0,.46,.03,.95,.06,1.47,.03,.52,.07,1.06,.12,1.61,.06,.55,.14,1.12,.23,1.68,.11,.56,.23,1.12,.4,1.66,.15,.55,.38,1.05,.6,1.54,.26,.47,.51,.93,.84,1.32,.31,.41,.67,.75,1.03,1.06,.37,.3,.75,.56,1.13,.78,.18,.12,.38,.2,.56,.29,.18,.09,.35,.19,.53,.25,.34,.12,.64,.28,.9,.35,.26,.08,.46,.16,.61,.21l.22,.08-.23,.04c-.15,.02-.37,.05-.65,.08-.28,.03-.63,.01-1.03,0-.2,0-.41-.05-.64-.07-.22-.03-.46-.07-.7-.14l-.37-.11c-.13-.04-.26-.07-.38-.13l-.39-.17c-.13-.06-.27-.11-.39-.19-.52-.29-1.05-.65-1.52-1.12-.12-.12-.24-.23-.35-.36l-.32-.39c-.22-.26-.39-.56-.58-.85-.33-.6-.62-1.23-.81-1.88-.11-.32-.17-.65-.25-.98-.07-.33-.12-.66-.16-.98-.04-.32-.07-.65-.08-.96-.02-.32-.02-.63,0-.94,.01-.61,.07-1.2,.15-1.75,.08-.55,.18-1.06,.3-1.53,.23-.94,.51-1.69,.73-2.2,.1-.26,.21-.45,.28-.59,.07-.13,.11-.2,.11-.2Z"/></svg>